<svg xmlns="http://www.w3.org/2000/svg" role="img"><pattern id="bars-pattern-07A-0" x="0" y="0" width="198" height="80" patternUnits="userSpaceOnUse" patternContentUnits="userSpaceOnUse" patternTransform="scale(0.5)"><g class="bars-pattern-H-07A_svg__pattern-stroke"><path d="m7.33 69.85 2.11-2.16 2.76 2.83-2.11 2.16-2.76-2.83z"></path><path d="M13.19 66.53c0 .15-.08 5.88 0 5.81H20v-4a7.27 7.27 0 0 1-2.38-.16c-.06.07-.09.2-.19.16a.15.15 0 0 0-.09-.16v-5.7h-6v-2.36a38.23 38.23 0 0 0-3.86 0s.06 4.32 0 6.41zm183.08.96c-.52-.76-.1-2.83-.23-3.73a26.44 26.44 0 0 1-.27-5.33 40.33 40.33 0 0 0 .38-4.34h-3.91v20.08c-.09 0-9.5 0-11.88-.07v.07a48.24 48.24 0 0 0-7 0V74a1.4 1.4 0 0 1-.57.13h-.06v3.92h23.54c.07-2.92-.27-7.05 0-10.56zM185.79 9.44l2.11-2.16 2.76 2.82-2.11 2.17-2.76-2.83z"></path><path d="M184.81 13.44c0-.13.07-5.89 0-5.81h-6.72v4a7.27 7.27 0 0 1 2.38.17c.06-.07.09-.2.19-.17a.17.17 0 0 0 .09.17v5.68h6v2.35a38.43 38.43 0 0 0 3.87 0s-.07-4.32 0-6.42z"></path><path d="M172.8 5.78a1.1 1.1 0 0 1 .56.13v-.13a51.39 51.39 0 0 0 7 0v.06c2.33-.06 11.77-.06 11.88-.06v20.08h3.9c.06-1.29-.11-4.38.13-5.93-.13-.1-.19-.23 0-.3 0-.48-.26-6.79 0-7.18-.23-3.51.06-7.66 0-10.64h-23.53v3.93h.06zM25.2 74.17a1.35 1.35 0 0 1-.56-.13v.13a48.38 48.38 0 0 0-7 0v-.07c-2.33.07-11.77.07-11.88.07V54.09H1.85C1.8 55.36 2 58.46 1.73 60c.12.09.19.22 0 .28 0 .47.26 6.82 0 7.19.23 3.51-.07 7.66 0 10.64h23.53V74.2h-.06zM1.73 12.45c.25.44 0 6.71 0 7.18.19.07.13.2 0 .3.24 1.55.08 4.64.13 5.93h3.9V5.78c.09 0 9.5 0 11.88.06v-.06a51.25 51.25 0 0 0 7 0v.13a1.14 1.14 0 0 1 .57-.13h.06v-4h-6.1c-3.29 0-6.67.58-9.91.23a27.24 27.24 0 0 0-7.54-.19c0 1.74 0 3.49.06 5.23.03 1.19-.57 4.46-.05 5.4z"></path><path d="m7.34 10.09 2.76-2.83 2.11 2.16-2.76 2.83-2.11-2.16z"></path><path d="M17.37 11.61c.09 0 .13.1.19.16a7.55 7.55 0 0 1 2.37-.16v-4h-6.72c-.11-.08 0 5.68 0 5.81H7.37c.09 2.1 0 6.42 0 6.42 1.28.1 2.57 0 3.86 0v-2.36h6v-5.67a.18.18 0 0 0 .14-.2zm140.86-3.75c-10 9.74-19.45 19.91-29.24 29.8l1.44 2.34-1.76 1.86c9.79 10.21 19.47 20.44 29.63 30.35a6.81 6.81 0 0 1 2.18-1.78c3-3.24 6-6.49 9.1-9.63.41-.41.83-.81 1.23-1.25s.57-.87.94-1.11a1.05 1.05 0 0 0 .3-.22.85.85 0 0 0 .1-.28c.24-.71 1-.92 1.52-1.32a25.51 25.51 0 0 0 2.15-2.26l6.18-6.27c.62-.62 5.49-6.23 5.85-6l-2-2 1.94-2.37C176.91 27 168.85 18.34 158.27 7.83zm26 32.14c-8.53 9.06-17.72 17.53-26 26.6-8.71-8.86-17.08-17.75-25.8-26.6 8.72-8.85 17.13-17.74 25.8-26.59 8.24 9.06 17.43 17.53 25.96 26.59zm1.56 30.5 2.77-2.82 2.11 2.16-2.76 2.83-2.12-2.17zM70.15 40.32c-.11-.43-.38-.88-.48-1.25a3 3 0 0 0-.62-1.35 55.64 55.64 0 0 0-4.11-4.16l-3.16-3.25c-4-4.14-8-8.24-12-12.31a9.3 9.3 0 0 0-1.59-1.12 19 19 0 0 1-3.26-3.67 17 17 0 0 0-2.76-3.16C42 9.94 39.55 8 39.7 7.83 29.12 18.28 21 27.31 10 37.73L11 40l-1.22 2.26c11 10.46 19.34 19.46 29.95 29.95C40 72.43 55 56.8 56.37 55.35q4.11-4.29 8.26-8.54l4.13-4.21c.58-.59 1.36-1.07 1.42-1.9a1.2 1.2 0 0 0-.03-.38zM39.83 66.6c-8.3-9.07-17.49-17.54-26-26.6 8.53-9.06 17.72-17.53 26-26.59 8.71 8.85 17.08 17.74 25.8 26.59-8.72 8.85-17.13 17.74-25.8 26.6z"></path><path d="M45.27 38.29c.1-.16 1.76-2 1.74-2-2.38-2.58-5.07-4.55-7.21-7.23 0 0-3 3.15-3.07 3.16-.2.21-.27.61-.52.56-1 1.19-2.44 2.38-3.44 3.61a29.26 29.26 0 0 0 2.62 2.22 3.08 3.08 0 0 0 1.22.75 1.47 1.47 0 0 1 .42.13.32.32 0 0 1 .15.39c-.15.29-.67.12-.91.25s-.34.35-.5.5c-.4.43-.83.81-1.24 1.25-.11.11-1.8 1.75-1.76 1.79 1 1.23 2.37 2.44 3.44 3.61.25 0 .32.35.52.56L39.8 51c2.14-2.68 4.85-4.65 7.21-7.23a17 17 0 0 0-2-2.19c-.45-.54-.89-1.06-1.38-1.55.49-.49.93-1 1.38-1.55a.24.24 0 0 0 .26-.19zm-5.38 7-1.59-1.66 1-1.15c.29.27.4-.38.5-.56l1.64 1.71zm-.09-7.23c-.1-.18-.21-.81-.5-.56 0 0-1-1.13-1-1.15l1.59-1.68 1.58 1.68zm140.83 30.27c-.09 0-.13-.09-.19-.16a7.26 7.26 0 0 1-2.37.16v4h6.72c.12.08 0-5.67 0-5.8h5.82c-.09-2.1 0-6.41 0-6.41-1.28-.1-2.57 0-3.86 0v2.36h-6v5.68a.17.17 0 0 0-.12.17z"></path><path d="M39.86 18.5c-6.9 6.8-12.09 12.3-19 19.23l.65 2.27-1 1.92c6.9 6.93 12.44 12.78 19.37 19.58 5.59-5.43 14.8-15 19.18-19.58L57.77 40l1-2.25c-4.42-4.56-13.32-13.81-18.91-19.25zm5.5 31.7c-.77.82-1.54 1.67-2.31 2.54l-.05-.07C42 53.8 40.72 55 39.77 56 35.33 50.87 29 45.45 24.11 40c4.93-5.44 11.22-10.83 15.66-16 .95 1 2.24 2.19 3.21 3.32l.07-.07c4 4.36 8 8.51 12.16 12.7-3.33 3.44-6.57 6.75-9.85 10.25zm131.99-12.3a164.76 164.76 0 0 1-11.44-12.21 5.53 5.53 0 0 0-1.38-1.35c-.63-.37-1.47-.45-2-1-.33-.32-.42-.81-.68-1.19a32.44 32.44 0 0 0-3.65-3.67 707.73 707.73 0 0 0-19 19.37l1.3 2.15-1.62 1.83c4.64 4.87 14 14.51 19.26 19.65C165 54.7 170.3 49.11 177.2 42.21l-1.76-2.16zm-20.12 20.22a.5.5 0 0 1-.29-.12.58.58 0 0 0-.12.42s-.31-.25-.34-.36.19-.17.21-.25l-.79-.45c0-.06.11-.27.16-.31s.21 0 .23.07-.09.15-.11.2c.29.06.45 0 .75.07a.64.64 0 0 1 .3.73zm1-2.14c-.95-1-2.24-2.2-3.21-3.32l-.07.06c-4-4.35-8-8.51-12.16-12.7 4.12-4.18 8.17-8.34 12.16-12.69l.07.06c1-1.13 2.26-2.35 3.21-3.32 4.44 5.13 10.73 10.55 15.66 16C169 45.44 162.67 50.83 158.23 56z"></path><path d="M161.63 40c.07-.08 3.55-3.55 3.6-3.64-1-1.23-2.37-2.44-3.44-3.61-.25 0-.32-.35-.52-.56L158.2 29c-2.14 2.68-4.85 4.65-7.21 7.23.16.14 1.68 2.16 2 2.19.45.54.89 1.06 1.38 1.55-.49.49-.93 1-1.38 1.55-.45.17-1.66 1.84-2 2.19 2.38 2.58 5.07 4.55 7.21 7.23l3.07-3.16c.2-.21.27-.61.52-.56 1-1.19 2.44-2.38 3.44-3.61-.04-.06-3.54-3.54-3.6-3.61zm-5.23.33c-.09 0-.05-.3-.11-.36-.31.16-.6.35-.9.51 0-.09-.21-.28-.21-.35a.35.35 0 0 1 .21-.19c.05 0 .1.19.13.22.23-.25.23-.47.51-.71a.71.71 0 0 1 .79.07.53.53 0 0 1-.27.22.61.61 0 0 0 .35.4c-.08.07-.37.23-.5.19zm1.71 5-1.58-1.68 1.65-1.71c.1.18.2.81.5.56l1 1.15zm.59-7.79c-.29-.27-.4.38-.5.56l-1.65-1.71 1.59-1.68 1.58 1.68z"></path><path d="M184 23c-8.38-6.73-15.1-15.72-23.13-23h-6c-2.38 2.43-5 4.78-7.27 7.38-2.24-2.07-5.06-5.14-7.27-7.38h-4.75a3.31 3.31 0 0 0-1.49 1.62l-.09-.09a41 41 0 0 1-4.9 5 .37.37 0 0 0 .13.13 8.45 8.45 0 0 0-1 .91c-1.45-1.26-2.64-3.1-4.28-4.33 0-.06.09-.09.13-.16a37.59 37.59 0 0 1-3.27-3h-4.75c-.74.75-1.47 1.35-2.26 2.19a.5.5 0 0 0 .13.13c-1.13.93-2 2.13-3.17 3a.34.34 0 0 0 .1.16l-1.81 1.84-4.41-4.31.1-.1a36.61 36.61 0 0 1-3.36-3h-4.75a39.38 39.38 0 0 1-3.34 3l.1.1L89 7.4l-1.84-1.89a.32.32 0 0 0 .09-.16c-1.2-.9-2.07-2.1-3.17-3 .07 0 .1-.1.13-.13C83.42 1.38 82.7.75 82 0h-4.8a40.59 40.59 0 0 1-3.26 3c0 .06.09.09.12.16-1.64 1.22-2.83 3.07-4.28 4.32a8.45 8.45 0 0 0-1-.91 1.08 1.08 0 0 0 .11-.11A40.6 40.6 0 0 1 64 1.5a.77.77 0 0 0-.12.1A3.31 3.31 0 0 0 62.39 0h-4.75c-2.16 2.23-5 5.32-7.27 7.38-2.25-2.6-4.91-4.95-7.26-7.38h-6C24.46 12.54 12.47 25.29 0 37.94v4.12C12.47 54.71 24.46 67.46 37.1 80h6c2.38-2.43 5-4.78 7.26-7.38 2.24 2.07 5.11 5.14 7.27 7.38h4.77a3.36 3.36 0 0 0 1.49-1.58.74.74 0 0 1 .11.1 41.34 41.34 0 0 1 4.91-5 .5.5 0 0 0-.13-.13 8.36 8.36 0 0 0 1-.91c1.45 1.25 2.65 3.1 4.29 4.32 0 .07-.1.1-.13.16a42.5 42.5 0 0 1 3.27 3h4.75c.74-.75 1.46-1.35 2.26-2.19a.5.5 0 0 0-.13-.13c1.13-.93 2-2.13 3.17-3a.34.34 0 0 0-.1-.16L89 72.6l4.51 4.31-.1.1a37 37 0 0 1 3.27 3h4.75a39.25 39.25 0 0 1 3.33-3l-.09-.1L109 72.6a22.27 22.27 0 0 1 1.7 2.05 23.52 23.52 0 0 1 3.08 3.15c.79.81 1.51 1.45 2.25 2.19h4.76a38.73 38.73 0 0 1 3.26-3 41.1 41.1 0 0 1 4.16-4.48 10.34 10.34 0 0 0 1 .9c-.06 0-.09.09-.12.13a42.09 42.09 0 0 1 4.91 5 .82.82 0 0 0 .11-.1A3.32 3.32 0 0 0 135.6 80h4.76c2.15-2.23 5-5.31 7.27-7.38 2.25 2.6 4.91 5 7.26 7.38h6c12.68-12.54 24.64-25.3 37.11-37.95v-4.11A187.62 187.62 0 0 1 184 23zm-11.26-7a3.74 3.74 0 0 1 1 .7c.08-.09.11-.29.2-.37s.22 0 .32 0a2.69 2.69 0 0 0 .67 1.55.44.44 0 0 0 .28-.22l.74.81c-.12-.08-.25-.19-.37-.26s.12.23.24.32 0 .13 0 .16-.06.13-.11.12a2.71 2.71 0 0 0-.79-.16c-.31-1.09-1.45-1.85-2.17-2.61-.02-.04.02-.04.03-.04zm-40.68-6.69a.52.52 0 0 1 .12.13c.32-.64 1-.86 1.23-1.55.6 0 .63-.81 1.2-1a8.13 8.13 0 0 1 2.23-2.26 1.15 1.15 0 0 0-.1-.13c.26-.19.48-.42.73-.6v-.03c.29-.36 6.75 6.73 7 6.7l.12-.13c-2 2.44-4.69 4.35-6.51 6.93-2.17-2.27-4.09-4-6.47-6.33l-.55-.6a9.35 9.35 0 0 0 1-1.13zM120 3.06c.09 0 .15.28.25.29s.18-.26.28-.26.23.25.37.24.3-.16.44-.19c0 .2-.17.31-.29.45a6.32 6.32 0 0 1 .63.74s.06.08 0 .13-.24.18-.31.25a2.29 2.29 0 0 0-.44-1 .62.62 0 0 0-.08.35c-.48-.13-.65-.56-1-.82.07.01.15-.18.15-.18zm-6.22 5.35A46.21 46.21 0 0 1 118 4.1l6.83 6.76c-2 2.05-4.32 4.45-6.23 6.64a64.77 64.77 0 0 1-6.83-6.83zm-6.74 7c.16-.1.1-.36.23-.46.62-.1.84-1 1.48-1.32l8.27 8.11 1.48-1.47 1.72 1.77c2.53-2.7 6.55-7 8.07-8.45 2.14 2.3 4.26 4.67 6.51 7-5.55 5.68-11 11.47-16.68 17.18 0 0-.07-.07-.1-.07a2224.1 2224.1 0 0 0-16.38-17c1.19-1.54 3.11-2.47 4.08-4.12.6-.08.78-.91 1.35-1.16zm-6.2 45.8h.19a1.17 1.17 0 0 1 .17.31s.09.06.08.08a.49.49 0 0 1-.48.19v-.56zM99 55.85c-4.45-4.38-9.5-9.67-14-14.3h5.9c2.38 1.22 4 2.82 6.3 4.41l1.8-1.25 1.84 1.22c2.29-1.62 3.87-3.16 6.27-4.38H113c-4.49 4.63-9.54 9.92-14 14.3zm-3.72.95c.06 0 .18-.29.23-.22a5.49 5.49 0 0 1 .64.86c0 .08-.16.21-.15.3-.67-.56-1.14-1.29-1.79-1.88.12 0 .37-.2.46-.1a10.87 10.87 0 0 1 .61 1.04zm-.16-1.11a1 1 0 0 1 .11-.44 2.3 2.3 0 0 1 .27.16.51.51 0 0 1 .11.22.8.8 0 0 1-.22.23.09.09 0 0 1-.12 0s-.15-.1-.15-.17zm-3.62-2.56a.72.72 0 0 1-.15-1 2 2 0 0 1 .43.43c.3 0 .41-.09.49-.29h.1a4.41 4.41 0 0 0 .79 1.44l.66.74a.39.39 0 0 1 .16.35.26.26 0 0 1-.29.19 1 1 0 0 1-.35-.14 2.28 2.28 0 0 1-.85-.81c.05 0 .28-.08.31-.06a12.81 12.81 0 0 1-1.3-.85zm-4.2-6.38a.51.51 0 0 0-.15.37 1.51 1.51 0 0 1-.59-.81c0-.05.1-.18.14-.14a8.07 8.07 0 0 1 .6.58zm-2-1.94s.08.08 0 .16-.25.21-.38.31a2.85 2.85 0 0 0-.55-1.18.62.62 0 0 0-.1.42c-.61-.15-.8-.7-1.32-1 .08 0 .14-.29.22-.29s.18.36.3.37.23-.33.35-.33.3.31.46.31.38-.21.56-.25c0 .25-.23.38-.36.58a10.17 10.17 0 0 1 .81.9zM96.18 40C97 39.39 98 38.49 99 37.75c1 .74 2 1.63 2.83 2.25-.79.61-1.82 1.51-2.83 2.25-1-.74-2-1.64-2.82-2.25zm10.93-1.55c-2.33-1.18-4-2.76-6.19-4.32L99 35.58l-1.94-1.44c-2.21 1.57-3.83 3.13-6.16 4.31h-5.85c4.48-4.62 9.5-9.92 14-14.3 4.46 4.38 9.51 9.68 14 14.3zM99 4.11l6.66 6.59c-2.26 2-4.54 4.52-6.66 6.7-2.11-2.18-4.39-4.71-6.65-6.7zm-19 0c1.23 1 4.75 4.86 6.23 6.57a64.77 64.77 0 0 1-6.83 6.83c-1.91-2.19-4.25-4.59-6.23-6.64zm-10.3 9.46c1.86 1.74 7.43 7.8 9.5 10l10.07-9.87c.63.33.86 1.23 1.48 1.33.13.09.06.35.22.45.57.23.79 1.06 1.33 1.06 1 1.63 2.89 2.58 4.08 4.12a4490.56 4490.56 0 0 0-16.38 17 .11.11 0 0 0-.1.07c-5.66-5.68-11.14-11.47-16.68-17.18 2.21-2.31 4.33-4.68 6.48-6.98zm-16.12-3c.17 0 .57-.51.67-.61l1.48-1.52C56.88 7.28 58 6 59.24 4.92a6.14 6.14 0 0 1 .84-.77c.65-.39 1.13.82 1.48 1.27A5.6 5.6 0 0 0 62.9 6.6c.34.22.66.45 1 .7 0 0 .72.77.72.6.25.68.91.91 1.23 1.55 0-.06.09-.1.12-.13a8.87 8.87 0 0 0 1 1.16l-.55.6c-2.38 2.38-4.31 4.06-6.47 6.33-1.83-2.58-4.5-4.51-6.51-6.93zm-18.38-6a.71.71 0 0 1 .15-.15.58.58 0 0 0 .12-.29h.05c.08-.13.3-.56.6-.26a2.13 2.13 0 0 1-.71.94.2.2 0 0 1-.21 0 .18.18 0 0 1 0-.18zm-2.44 1.24a11.5 11.5 0 0 0 .85-.81c.17-.2.36-.55.61-.66a1.5 1.5 0 0 0 .15.51 4.61 4.61 0 0 1 .15-.53l.06-.11a.3.3 0 0 1 .37 0 1.1 1.1 0 0 1-.24.6 4.69 4.69 0 0 1-.49.68 4.15 4.15 0 0 1-.67.52l-.28.13a1.42 1.42 0 0 1-.71 0 .45.45 0 0 1 .2-.33zm-30 32.68c0-.09.28-.15.28-.25S2.73 38 2.73 38s.27-.3.27-.43-.16-.3-.2-.45c.2 0 .3.18.45.29a8.8 8.8 0 0 1 .75-.65s.07-.06.12 0 .18.25.25.32a2 2 0 0 0-.92.45.51.51 0 0 0 .32.08c-.12.49-.54.67-.79 1.08-.09-.09-.28-.14-.27-.2zm37.1 38.59C28.14 64.71 15.17 52.09 3.05 40 15.18 27.9 28.14 15.29 39.86 2.9 52 15.25 64.21 27.49 76.25 40 64.21 52.51 52 64.75 39.86 77.08zM66 70.67a.52.52 0 0 1-.12-.13c-.32.65-1 .87-1.23 1.55-.6 0-.64.81-1.2 1a8 8 0 0 1-2.23 2.26 1.06 1.06 0 0 0 .09.13c-.25.19-.47.42-.73.61v.06c-.28.35-6.74-6.72-7-6.71l-.12.13c2-2.43 4.68-4.35 6.51-6.93 2.16 2.31 4.09 3.93 6.47 6.37l.55.6a8.52 8.52 0 0 0-1 1.12zm14 5.24-6.82-6.77c2-2 4.32-4.45 6.24-6.64a64.67 64.67 0 0 1 6.82 6.83l-2 2.26A49 49 0 0 1 80 75.91zm7.63-4.32c-1.07.31-1.81 1.47-2.55 2.23a4.31 4.31 0 0 1 .68-1c-.09-.08-.28-.11-.36-.21s0-.23 0-.33a2.56 2.56 0 0 0 1.52-.68.53.53 0 0 0-.22-.29l.8-.75-.27.37c.17 0 .23-.11.32-.24s.13 0 .15 0 .14.08.12.12a2.94 2.94 0 0 0-.17.78zm3.29-7c-.16.1-.1.36-.22.45-.63.1-.85 1-1.49 1.33l-8-7.92L79.37 60l-2-1.62a242.66 242.66 0 0 1-7.65 8c-2.14-2.3-4.26-4.66-6.51-7 5.54-5.68 11-11.48 16.68-17.18 0 0 .06.06.1.06 5.28 5.54 11.08 11.57 16.38 17-1.19 1.54-3.11 2.48-4.08 4.12-.57 0-.76.85-1.33 1.08zM99 75.92l-6.65-6.6c2.25-2 4.53-4.52 6.65-6.7 2.11 2.18 4.39 4.72 6.65 6.7zm19 0c-1.24-1-4.76-4.87-6.24-6.58a66.12 66.12 0 0 1 6.83-6.87c1.91 2.2 4.25 4.61 6.23 6.64zm10.29-9.48c-1.86-1.74-7.43-7.8-9.5-10l-10 9.86c-.64-.33-.86-1.23-1.48-1.33-.13-.09-.07-.35-.23-.45-.57-.23-.75-1.06-1.32-1.06-1-1.63-2.89-2.58-4.08-4.12l16.38-17a.11.11 0 0 0 .1-.07c1.11 1.12 2.25 2.21 3.32 3.37a16.81 16.81 0 0 1 2.29 2.62c.13.22.21.47.34.68.35.57 1 .85 1.44 1.37.19.24.32.51.51.75.52.61 1.3.66 1.87 1.14a28.64 28.64 0 0 1 2 2.16l5 5.12a215.4 215.4 0 0 0-6.53 7zm16.11 3c-.19 0-6.67 7.06-7 6.71v-.06c-.25-.19-.48-.42-.73-.61a.64.64 0 0 1 .1-.13 7.85 7.85 0 0 1-2.17-2.24c-.57-.13-.6-.93-1.2-1-.25-.69-.91-.91-1.23-1.55 0 .06-.09.09-.12.13a8.87 8.87 0 0 0-1-1.16l.55-.61c2.38-2.36 4.3-4 6.46-6.32 1.83 2.58 4.5 4.51 6.52 6.93zM173.53 61c-4.1 4.87-11.28 11.64-15.4 16.14C146 64.75 133.77 52.52 121.7 40q4.23-4.3 8.43-8.65l4.3-4.4A31.15 31.15 0 0 1 138 24c.57-.45.73-1.33 1.15-1.89a27.62 27.62 0 0 1 2.62-2.68l5.39-5.43 11-11.12C169.87 15.29 182.82 27.9 195 40c-7.18 6.93-13.94 14.36-21.4 21z"></path><path fill="none" d="M0 0h198v80H0z"></path></g></pattern><rect fill="url(#bars-pattern-07A-0)" width="100%" height="4rem"></rect></svg>