<svg viewBox="0 0 401 220" fill="none" xmlns="http://www.w3.org/2000/svg" role="img"><path d="M385.375 212.949c0-2.538 1.552-4.654 4.513-5.923l2.398-.987v8.744c0 .423 0 .987.141 1.269-1.693.705-2.539.987-3.385.987-2.397-.141-3.667-1.833-3.667-4.09Zm6.77-9.448v.846l-7.757 3.384c-3.667 1.552-5.5 3.526-5.5 6.346 0 3.526 2.539 5.782 5.923 5.782 1.693 0 2.821-.282 7.898-2.538.564 1.833 1.974 2.538 4.23 2.538 1.27 0 2.398-.423 3.103-.846-.705-.564-1.269-1.551-1.269-3.243v-11.282c0-5.077-2.68-7.757-7.334-7.757-2.538 0-4.653.705-9.166 2.68v1.692c2.256-.987 3.948-1.692 5.782-1.692 2.679-.141 4.09 1.269 4.09 4.09Zm-20.167-18.052-4.654 4.513 4.654 4.654 4.513-4.654-4.513-4.513Zm-2.962 19.462v10.295c0 3.102 1.129 4.794 3.949 4.794 1.551 0 2.962-.564 3.667-1.41-.705-.564-1.27-1.128-1.27-4.231v-17.628l-7.474 3.103c.846 1.551 1.128 2.397 1.128 5.077Zm-19.32 10.718v-14.808c1.974-.846 2.679-.987 3.525-.987 2.398 0 4.513 2.538 4.513 8.32 0 5.923-1.974 10.295-5.218 10.295-1.551-.282-2.82-1.128-2.82-2.82Zm-6.346-21.013v25.243l5.5-1.551c1.551.987 2.538 1.551 4.795 1.551 4.23 0 11.141-3.102 11.141-13.679 0-6.487-3.385-9.59-6.911-9.59-1.833 0-2.82.282-7.897 2.539v-12.834l-7.474 3.103c.564 1.833.846 2.679.846 5.218Zm-18.616 18.333c0-2.538 1.552-4.654 4.513-5.923l2.398-.987v8.744c0 .423 0 .987.141 1.269-1.693.705-2.539.987-3.385.987-2.397-.141-3.667-1.833-3.667-4.09Zm6.911-9.448v.846l-7.757 3.384c-3.667 1.552-5.5 3.526-5.5 6.346 0 3.526 2.539 5.782 5.923 5.782 1.693 0 2.821-.282 7.898-2.538.564 1.833 1.974 2.538 4.23 2.538 1.27 0 2.398-.423 3.103-.846-.705-.564-1.269-1.551-1.269-3.243v-11.282c0-5.077-2.68-7.757-7.334-7.757-2.538 0-4.653.705-9.166 2.68v1.692c2.256-.987 3.948-1.692 5.782-1.692 2.679-.141 4.09 1.269 4.09 4.09Zm-28.911 15.935h8.885c-.987-1.692-1.128-2.538-1.128-5.077v-8.743c1.692-2.539 4.089-3.526 8.32-3.526v-5.359c-4.936 0-6.769 2.68-8.32 7.052v-7.052l-7.475 3.103c.846 1.692 1.129 2.538 1.129 5.077v9.448c-.283 2.539-.565 3.385-1.411 5.077Zm-24.538-11.564c0-.141.141-.282.141-.423l5.077-11.141 4.231 11.564h-9.449Zm-7.334 11.564h6.911c-.987-2.256-1.269-6.205-.282-10.012h10.577l1.974 5.359c.987 2.538.705 3.525-.141 4.653h10.436c-.987-.846-1.974-2.256-2.821-4.653l-9.73-25.667-6.206 2.679c.424 2.539-.282 5.5-3.102 11.564l-7.616 16.077Zm-28.628-11.282c0-7.756 2.398-10.153 4.795-10.153 2.398 0 4.795 2.397 4.795 10.153 0 7.898-2.397 10.154-4.795 10.154-2.538 0-4.795-2.256-4.795-10.154Zm4.654 11.705c5.923 0 11.564-3.807 11.564-11.705 0-7.897-5.641-11.564-11.564-11.564s-11.564 3.808-11.564 11.564c.141 7.898 5.782 11.705 11.564 11.705Zm-25.808-19.32v12.128c0 4.372 2.116 7.192 6.347 7.192 2.256 0 3.948-.564 7.051-1.974v-1.269c-1.128.423-1.974.705-2.962.705-2.82 0-3.948-1.833-3.948-4.372v-14.102h6.064l.423-1.693h-6.487v-4.795l-7.475 3.103c.705 1.692.987 2.538.987 5.077ZM308.657 171.347c0 6.628 4.372 11.141 11 11.141 5.359 0 9.167-2.821 10.577-7.757l-.705-.141c-.987 2.257-3.525 3.526-6.91 3.526-3.103 0-5.218-1.269-6.346-3.808l4.372-1.833c6.487-2.679 8.743-4.654 8.743-7.333 0-3.526-3.384-5.923-8.461-5.923-7.193-.141-12.27 4.936-12.27 12.128Zm9.872.282-2.82 1.128c-.282-1.128-.423-2.397-.423-3.949 0-5.077 1.974-8.179 4.936-8.179 2.256 0 3.384 1.692 3.384 4.372 0 3.102-1.551 5.077-5.077 6.628Zm-20.307-6.346v12.269c0 3.103 1.128 4.795 3.948 4.795 1.552 0 2.962-.564 3.667-1.41-.705-.565-1.269-1.129-1.269-4.231v-11.564c0-2.821-1.411-6.064-6.064-6.064-1.693 0-2.821.282-8.321 2.538-.987-1.269-2.679-2.538-5.641-2.538-1.692 0-2.82.282-7.897 2.397v-2.397l-7.475 3.102c.846 1.692 1.128 2.539 1.128 5.077v9.449c0 2.538-.282 3.384-1.128 5.077h8.885c-.987-1.693-1.128-2.539-1.128-5.077v-13.68c2.397-.987 3.102-1.269 4.371-1.269 1.975 0 3.103 1.128 3.103 3.526v11.564c0 2.538-.282 3.384-1.128 5.077h8.884c-.987-1.693-1.128-2.539-1.128-5.077v-13.68c2.398-.987 3.103-1.269 4.372-1.269 1.692-.141 2.821 1.128 2.821 3.385Zm-48.372 5.359c0-7.757 2.397-10.154 4.795-10.154 2.397 0 4.794 2.397 4.794 10.154 0 7.897-2.397 10.154-4.794 10.154-2.398.141-4.795-2.257-4.795-10.154Zm4.795 11.705c5.923 0 11.564-3.808 11.564-11.705 0-7.898-5.641-11.564-11.564-11.564s-11.564 3.807-11.564 11.564c0 7.897 5.782 11.705 11.564 11.705Zm-23.411 0c5.077 0 8.603-2.68 9.872-7.757l-.705-.141c-.987 2.257-3.244 3.526-6.205 3.526-4.513 0-7.051-3.244-7.051-9.449 0-4.936 2.538-8.038 6.346-8.038 2.397 0 4.231 1.41 5.5 4.372h.564v-4.795c-2.539-.705-4.372-1.128-6.346-1.128-7.757 0-12.834 4.653-12.834 11.846.141 7.051 4.372 11.564 10.859 11.564Zm-21.577-25.244v20.449c0 3.103 1.129 4.795 3.949 4.795 1.551 0 2.962-.564 3.667-1.41-.705-.565-1.269-1.129-1.269-4.231v-27.923l-7.475 3.102c.846 1.834 1.128 2.68 1.128 5.218Zm-25.102 14.244c0 6.628 4.372 11.141 11 11.141 5.359 0 9.167-2.821 10.577-7.757l-.705-.141c-.988 2.257-3.526 3.526-6.911 3.526-3.102 0-5.218-1.269-6.346-3.808l4.372-1.833c6.487-2.679 8.744-4.654 8.744-7.333 0-3.526-3.385-5.923-8.462-5.923-7.192-.141-12.269 4.936-12.269 12.128Zm9.872.282-2.821 1.128c-.282-1.128-.423-2.397-.423-3.949 0-5.077 1.974-8.179 4.936-8.179 2.256 0 3.385 1.692 3.385 4.372 0 3.102-1.552 5.077-5.077 6.628Zm-47.385-15.09 8.744 25.244h3.666l6.064-18.616 6.206 18.616h3.666l10.577-30.462h-6.205c1.833 2.257 2.115 6.205.141 11.987l-3.808 11-7.474-23.41-6.346 2.68c1.833 5.077 1.551 9.307.141 13.397l-2.398 7.333-6.064-18.615c-.564-1.974-.423-3.244.705-4.231h-10.859c1.411.705 2.257 2.398 3.244 5.077Z" fill="#BE008D"></path><path d="M221.786 87.578c0 .423-.141.987-.141 1.41 0 .423-.141.987-.141 1.41-.141 1.975-.282 3.949-.988 5.923-.423.987-.564 1.834-.705 2.68-.141.846-.423 1.833-.846 2.961 0 0 0 .141-.141.423-.141.282-.141.846-.282 1.411 0 .141 0 .282-.141.282v.282c-.141.282-.141.564-.282.846-.423 1.41-.987 3.102-1.692 5.077-.988 2.961-2.116 5.641-3.526 8.038 2.538-.423 4.513-1.41 7.051-3.666 1.27-1.834 2.539-3.667 3.808-5.783-.705-.987-1.974-18.192-1.974-21.294ZM204.298 55.988c-1.551-.987-3.243-1.833-4.935-2.398-7.475-.14-14.667 8.885-19.039 14.385 3.385.564 7.051 2.962 8.744 5.077.987 1.128 1.692 2.397 2.679 3.526.564.564.705 1.269.987 1.974.705 1.692 0 3.385.423 5.077.141.564.141 1.128.141 1.833.141.564.282 1.834.282 2.257l.424-.282c4.653-3.103 9.307-6.77 13.679-10.154V77c.423-2.539.705-5.218 1.128-7.757.423-2.397.141-4.794-.423-6.91-.423-2.538-1.833-4.795-4.09-6.346ZM324.311 60.924l-.705-.423c-.564-.423-2.256-.846-3.525-1.128-3.667.705-9.872 10.153-10.718 12.974 2.256.987 4.371 2.538 5.641 4.23.282.424.705.847.987 1.27.564.846 1.128 1.551 1.692 2.256.564.706.846 1.27 1.128 1.975v.14c.423.988.423 2.116.282 3.103 0 .705 0 1.41.141 1.975.141.564.141.987.141 1.55.282.283.423.565.564.988 0 .282 0 .705-.141.987.141.564.424 1.975.847 4.231.141.846.282 1.692.564 2.538 4.23-11.282 7.897-22.423 8.884-32.859-.564-.564-1.128-1.128-1.833-1.55-1.128-.988-2.679-1.834-3.949-2.257ZM368.734 94.065c-.282.846-.423 1.692-.564 2.538-.141.706-.705 3.385-.705 3.385-.141.705-.423 1.269-.564 1.974-.423 1.552-.846 3.103-1.128 4.795-.141.705-.282 1.411-.423 1.975-.141.564-.705 4.23-1.693 4.653.988-.141 5.359-1.128 6.911-2.961.141-.282.705-1.551 1.128-2.68 0-.141.141-.423.141-.423l.141-.282c-.705-1.974-2.538-8.884-3.244-12.974ZM257.042 75.59c-.282 4.513-.705 9.026-1.269 10.86-.423 1.269-.564 2.397-.846 3.243-.141 1.128-.423 2.115-.846 3.667v.423c0 1.41.141 5.218-1.552 10.153-.846 4.513-2.679 8.744-5.359 11 1.27.424 3.667.283 6.629-2.538.705-1.269 1.269-2.397 1.692-2.962.987-1.41 1.551-2.115 3.666-6.205l.142-.423c-1.129-10.718-1.975-20.73-2.257-27.218ZM119.119 53.59c-10.295-3.807-19.744-5.218-30.18-6.91-14.525 6.628-29.05 13.257-40.192 19.744 5.218-.282 15.936-.141 21.154-.423 2.115.282 4.372.564 6.628.564 2.116.705 3.526.423 5.36.282 4.935.282 9.307 1.833 14.525 1.974 1.974-.14 3.667 1.27 5.5 1.692.846-.282 3.102.706 3.949.706 1.128-.282 2.115.987 3.384.987 1.975.423 3.667.987 5.5 1.974 1.693.564 3.526.564 4.936 1.833 4.795 3.244 9.59 7.052 12.41 12.41 1.552 3.244 2.68 5.783 2.68 8.744 5.359-4.936 8.461-8.884 10.859-12.692 1.128-5.077 1.269-9.872.141-12.692-5.923-8.18-17.346-13.82-26.654-18.193Z" fill="#78006E"></path><path d="M247.17 115.077h-.141c-.564-.282-1.128-.564-1.692-.987 0 0-.141-.141-.282-.141-1.834-1.269-2.962-9.167-3.103-9.59-.141-.423-.141-.987-.282-1.41-.564-2.397-1.269-5.5-2.115-8.602-.141-.283-.141-.565-.282-.847-.141-.423-.282-.846-.282-1.128.141-2.82-.141-5.64-.564-8.32l-.423-4.231c-.141-.987-.141-.423-.141-.987-.142-1.129-.142-1.834-.142-3.808v-6.91s-4.089 1.833-4.935 2.256l-.847.423c-1.551.705-1.833.846-2.256 1.27-.282.282-.564.564-1.551 1.128 0 0-4.513 2.82-6.628 4.654V78.834c0 .564 0 1.269.141 2.115 0 .423 0 .987.141 1.551 0 .706.141 1.41.141 2.257.141.846.141.423.282 1.269 0 .564.141.987.141 1.551V88c0 3.103 1.269 20.308 1.974 21.295h.282c.141 1.551.705 2.821 1.269 3.949.282.423.564.987.705 1.41.847 1.41 1.552 2.821 1.834 4.513 0 .282.141.564.141.846.564.846.846 1.692 1.692 2.398.423.423.705.705 1.128.987.846.423 1.834.564 2.821.705 1.128.141 2.115.282 3.102.423.282 0 .706-.141.988-.282.141 0 .423-.141.564-.141 4.23-1.128 9.871-3.385 12.692-7.051l1.269-1.693c0-.141.141-.141.141-.282.282-.423.987-1.692 1.269-2.256-3.384 2.538-5.782 2.538-7.051 2.256ZM212.901 118.321c-.141 0-1.269.141-1.269.141-.846 0-1.269-.282-1.269-.282-1.129-.987-2.116-3.808-2.398-5.782-.141-1.128-.846-6.205-.846-6.346-.141-.705-.141-1.975-.282-3.667.141-1.692.282-3.102.282-4.372.141-1.833.141-2.397.564-4.512.141-.847.282-3.526.282-5.782v-1.41h-.282l-.423.14s-.705.423-.846.564c-.282.141-.705.423-.987.564a58.786 58.786 0 0 0-3.949 2.398 79.319 79.319 0 0 0-5.077 3.808c-.564.423-.987.846-1.551 1.269-1.693 1.41-3.385 2.82-4.795 4.513-.564.564-1.975 2.115-1.975 2.115-5.923 5.5-10.012 9.026-15.371 10.577-.987.282-1.552.564-1.693.987h-1.128c-.423 0-.987 0-1.269.141-.282 0-.705.141-.987.141-.423 0-.705-.141-.987-.282-.847-.705-1.411-1.551-1.693-2.256l-.141-.282c-.705-1.834-1.41-3.667-1.551-5.5-.282-3.808.141-7.334 1.128-10.436 1.269-3.808 2.68-7.898 4.936-11.564 2.115-3.808 4.654-7.193 7.474-10.86.706-.845 1.411-1.692 2.116-2.397.282-.423.705-.987.987-1.41l.141-.282c4.372-5.5 11.564-14.526 19.038-14.385-1.128-.282-2.397-.564-3.525-.705-.564 0-2.821-.282-3.526-.282h-.141c-1.269-.14-2.538-.282-3.525.423-4.372.987-8.039 3.667-11.141 6.064-4.372 3.385-9.026 7.052-13.257 11.141-5.923 5.782-9.872 11.282-12.269 17.346a6.588 6.588 0 0 1-.705 1.41 6.873 6.873 0 0 0-.423.988c-.282.705-.705 1.41-.988 2.115-1.128 2.257-2.256 4.795-2.961 7.334l-.423 2.115c-.141.564-.141 1.128-.282 1.692-.423 1.975-.987 3.949-1.41 5.782-.424 1.411 0 2.68.987 3.526.423.423.705.705.705 1.41.564 3.526 1.974 6.064 4.654 8.462.141.141.282.282.423.282.141 0 .282.141.282.282.564 1.128 1.551 1.551 2.82 1.551.423 0 .847 0 1.552-.141l.423-.141c.564-.564.705-1.41.423-2.397.282 0-.282-.564-.141-.564.846 0 2.538.564 3.243.564h.141c.564.141 1.27.141 1.834.141 1.128 0 1.974-.282 2.82-.846h1.128c2.257-.141 4.513-1.27 6.488-2.257 1.269-.564 2.538-1.269 3.666-1.551.564-.141.987-.423 1.411-.705.141-.141.282-.282.564-.282.987-.564 1.833-1.41 2.679-2.257.846-.846 1.833-1.833 2.821-2.256a28.024 28.024 0 0 0 3.384-2.256l.846-.847c.282-.141.423-.423.706-.564a8.506 8.506 0 0 1 2.679-.846v.141c.423 2.257 1.41 6.91 1.41 6.91.141.706.282 1.411.282 1.975l.141.564c.141.705.282 1.551 1.27 2.256.846.705 1.551 1.834 2.115 3.385.423 1.41 1.974 2.82 4.09 2.82.987.282 2.115.423 3.243.423 1.129 0 2.398-.141 3.808-.423.705-.141 5.5-1.41 8.603-5.5.423-.423.846-.846 1.128-1.41.846-1.41 1.692-2.538 2.538-3.667-2.115 1.834-4.231 2.821-6.769 3.244ZM102.478 4.231l.141-.14L103.888 0c-7.615 2.82-34.269 12.269-44 15.512l-.282.141-.987 4.231.987-.282c10.154-3.385 35.398-12.41 42.872-15.372ZM363.234 54.86c1.975 1.55 5.359 4.09 7.193 5.782 1.551 1.41-.141-.142 1.692.846.423.282.846.564 1.128.987 1.41 1.551 2.116 2.538 3.526 1.128.564-.564.705-2.538.423-3.244-1.551-3.243-.282-3.243 2.538-2.397 1.834.564 1.834-1.128 1.975-3.526 0-.282-.141-1.55 0-1.692.987-.705 3.102-1.692 2.538-2.397-.423-.706-.141-.846-.564-1.693-.564-.423-3.244-1.833-3.244-2.82-.141-.705-.564-1.41-.987-1.975-1.551-1.55-5.077-3.807-6.91-4.935-.282-.282-.705-.423-.987-.847-.282-.423-.987-.705-1.128-1.128-1.411.423-1.552.987-2.539 1.834-2.397 2.397-4.09 5.5-6.346 8.038-.705.846-1.269 1.833-2.115 2.68-.423.423-.564.987-.847 1.41 0 .564-.846 1.128-.705 1.692 1.27.282 3.103.846 4.09 1.551.423.141.846.423 1.269.705Z" fill="#BE008D"></path><path d="M360.696 111.975c-.282-.282-.423-.846-.564-1.269 0-.141-.141-.423-.141-.564-.141-.705-.423-1.27-.564-1.975-.564-1.551-1.129-2.115-1.411-3.666-.564-2.116-.846-4.372-1.269-6.629-.141-1.128-.423-2.115-.564-3.243l-.282-1.128c-.705-3.949-1.551-7.898-1.833-11.988v-.282c0-.564-.141-1.128-.423-1.692-.282-.705-.423-1.41-.564-2.256v-.141c-.141-.705-.283-1.552-.283-2.257-.141-1.269-.423-2.538-.423-3.807-.141-1.27-.564-4.513-.987-7.334-.282-1.833-.564-3.384-.564-3.948v-.423c0-.847-.141-1.693-.423-2.257-.282-.564-.423-1.551-.564-3.102-.141-1.129-.141-2.398-.141-3.526-.141-1.834-.141-3.808-.423-5.641-.141-1.551.141-15.654.282-20.449.141-3.384.282-6.346.282-7.333 0-.846-.141-1.834-.282-2.68-.141-.423 0-2.256 0-2.256l-1.128.423c-1.27.141-3.103 1.41-4.795 2.538-.846.565-1.692 1.27-2.116 1.41-.846.424-2.115 1.27-3.384 2.116-1.692 1.128-3.667 2.398-4.513 2.68-.423.14-1.692.987-1.692.987s1.128.705 1.692 1.269c.423.423.846.987.846 1.41-.141 1.41-.282 3.949-.282 6.77.141 1.41 0 8.32.141 10.153-.282 1.693-.564 6.91-1.128 9.449-.987 4.936-2.115 10.436-2.397 12.833 0 .141 0 .282-.142.423-.987 10.436-4.653 21.577-8.884 32.86 0 .14-.141.281-.141.422-.141.282-.282.706-.423.988-.141.423-.423.846-.564 1.41-.141.282-.282.564-.423.705-.141.282-.282.705-.565.987-.141.141-.141.423-.282.564l-.282.564c-3.384 6.629-6.769 10.436-8.884 12.411l-.282.282c-.705.564-1.411.846-1.975.846-1.551 0-2.961-1.833-3.807-2.962-.141-.282-.423-.423-.564-.705-.706-.705-1.27-1.551-1.693-2.679-1.128-2.962-1.551-6.064-1.41-9.308.282-5.5 1.551-11 3.526-16.359.846-2.256 1.974-5.218 3.384-8.038.141-.141.141-.424.282-.565l.141-.423c0-.14.141-.14.141-.282 0-.14.141-.282.141-.423.141-.14.141-.282.282-.564.141-.14.141-.282.282-.423.141-.282.283-.564.565-.846l.282-.423c.141-.282.282-.564.423-.705l.141-.141c.846-2.68 7.051-12.27 10.718-12.975 0 0-.564-.14-.846-.14h-.565c-1.551 0-2.82.281-3.948.846-.987.423-2.539.705-4.09 1.128-2.115.423-4.372.846-5.782 1.833a57.912 57.912 0 0 1-5.5 3.385l-.846.423c-2.398 1.41-4.513 3.525-6.064 6.064-1.27 2.115-2.539 4.513-2.257 7.474.141.846-.141 1.834-.423 2.68l-1.269 4.23c-.423 1.552-.987 3.103-1.41 4.654-.141.705-.282 1.552-.423 2.257 0 .282-.141.705-.141.987v.282l.141.141c.705.987.423 2.115 0 3.385-.141.282-.141.705-.282.987v.14c-.141.706-.283 1.552.141 2.257-1.129 1.128-.565 2.398-.141 3.103l.141.423c.282.705.282 1.41.423 2.115.141.846.141 1.693.423 2.539.423.987 2.256 2.256 2.679 2.538.141.141.423.282.705.564-.141.141-.705.987-.987.987-.282.141-1.551.847-2.115.988-1.128.141-2.257 0-3.244-.423-.141 0-.282-.141-.423-.283-.141 0-.141-.141-.282-.141-.141-.141-.282-.141-.423-.282-.141 0-.141-.141-.282-.141l-.423-.423c0-.141-.141-.141-.141-.282-.141-.282-.423-.423-.564-.705a1.946 1.946 0 0 0-.564-.423c-.847-.846-1.552-1.833-1.975-2.82-.141-.424-.141-.706-.141-1.129-.564-.846-.846-1.692-1.128-2.679-.282-1.551-.705-2.962-1.128-4.372-.564-1.833-.987-3.526-1.269-5.5a171.402 171.402 0 0 0-.423-3.102 62.325 62.325 0 0 0-.565-4.372c-.141-.564-.141-.988-.282-1.41-.141-.565-.282-1.27-.423-2.398-.141-1.128-.282-1.974-.423-3.103-.141-.987-.282-1.974-.564-3.666 0-.141-.141-1.128-.282-1.834l-.141-.705c-.141-.564-.141-.987-.282-1.551a18.8 18.8 0 0 1-.423-3.949v-1.833c0-1.974 0-4.09-.141-5.641l-.141-1.833s-4.09 1.974-5.077 2.68c-.282.14-.423.281-.705.422-2.398 1.41-3.385 1.974-5.782 2.962l-.846.423c-1.693.846-2.68 1.269-2.962 1.551l-.282.141V69.103c0 .282.141.564.141.846l.141.988c0 .282.141.564.141.846v.564c0 .282.141 2.256.141 2.82.282 6.346 1.128 16.5 2.257 27.218v.423c.564 4.231.564 4.372.705 4.513l.846 1.269c.141.141.141.282.282.424.705 1.269 1.551 2.82 3.384 3.384 0 0 .283.141.424.423.987 1.693 1.974 3.526 2.679 5.077.987 1.833 2.397 3.385 4.231 4.795.423.282.846.423 1.269.423h1.974c.141 0 .423.141.564.282.283.282.706.423 1.27.423h.282c.564 0 .987 0 1.551.141.564 0 1.128.141 1.692.141.706 0 1.27 0 1.834-.141 2.256-.423 4.089-1.41 5.359-2.679.846-.846 1.833-1.552 2.82-2.257.141-.141.282-.141.423-.282.423-.282.846-.564 1.128-.846.283-.282.706-.423 1.129-.705.423-.282.705-.423 1.128-.705.282-.282.423-.564.705-.846.846.564 1.41 1.128 1.551 1.551.423 1.41 1.27 1.974 2.257 2.538.987.565 2.256.988 3.384 1.411.423.141 2.398.141 2.68.141 1.692 0 2.256-.141 2.538-.282h.282c1.975-.282 4.231-1.27 4.513-1.411 4.09-1.692 7.333-5.076 9.59-7.192l1.692-1.692c.282-.282.705-.564.987-.987 2.68-3.103 5.5-6.629 7.757-10.577.141-.282.282-.423.423-.705.564-.988 1.269-2.257 1.41-3.526.846-.282 1.128-.846 1.128-1.27 0-.422.141-.987.141-1.41 0-.423.141-.846.141-1.41.141-.282 1.129-2.397 2.116-4.654l.141.141v.564c-.141.706.141 1.27.282 1.834.141.282.141.564.282.846.141.564 2.256 4.372 2.397 4.795.141.846.282 1.692.705 2.538.141.141.282.423.282.564.142.282.283.564.283.988.141.705.423 1.55.987 2.115-.282.564-.141.987 0 1.269v.141c.564 2.116 1.128 3.949 1.692 5.782l.423 1.27c.282.987.564 1.974.705 2.961.141 1.833.705 3.385 1.269 4.936.565.141.847.564.847 1.41v.282c.846.987 1.833 2.116 2.961 2.962.141.141.282.282.423.282.564.141 1.269.282 1.834.423.423.141.705.141 1.128.282 1.128 0 2.256-.282 3.525-.282l.847-.282v-.141c.423-.141 1.128-.564 2.538-1.128.141-.141.423-.141.423-.141.846-.706 1.692-1.27 2.539-1.693 1.551-.987 4.371-5.641 4.794-5.923.282-.282.988-.987.988-1.269 0-.564.282-.987.564-1.269l.141-.141c-1.552 1.974-5.923 2.961-6.91 2.961-1.27.282-2.821-.846-3.103-1.269ZM399.76 122.552a1.946 1.946 0 0 0-.564-.423c-.141 0-.282 0-.564-.141-2.116.141-4.795-1.129-5.782-2.257-.987-1.128-5.077-16.218-5.782-18.333-.282-.846-.705-3.667-.987-4.23a6.216 6.216 0 0 1-.847-2.257c0-.564-1.128-6.064-1.128-6.91 0-.706-.141-1.27-.141-1.975-.141-1.551-1.128-8.743-1.269-10.295-.141-.846-.282-1.833-.282-2.82v-.282c.141-1.552.141-2.116-.141-2.398l-.141-.282h-.282c-.423 0-1.269.423-3.526 1.552-.705.423-1.692.846-1.974.987-1.975.564-4.513 1.551-6.064 2.256-.846.423-4.654 1.974-4.654 1.974.564.564 2.538 1.975 2.538 1.975.564 1.41.423 14.808.423 15.09.706 4.09 2.68 11 3.103 12.692.141.282.141.423.141.423s.705 2.961.987 4.513c.282.282.423.564.564.705.564.987.846 4.654 1.128 5.782.565 1.833 1.411 3.526 1.693 5.5 2.397 2.961 4.936 5.782 8.884 6.346.847.141 1.693.141 2.539.141.282-.141.564-.141.846-.282 2.256-.705 4.231-1.551 6.205-2.538 1.128-.565 2.116-1.129 2.962-1.834.141-.141.423-.282.564-.564.987-.282 1.41-.987 1.551-2.115 0 .141 0 .141 0 0Z" fill="#BE008D"></path><path d="m279.747 109.577-.141-1.128c0 .282 0 .705.141 1.128ZM294.273 139.334l-.987 3.667.987-.283c8.743-2.82 30.179-10.576 36.525-13.115l.141-.141.988-3.667c-6.488 2.398-29.052 10.436-37.513 13.257l-.141.282ZM258.452 47.385c-.423-.141-1.692-.564-2.256-.705h-.282l.141-.282c.282-.846.423-1.833.423-2.82 0-7.052-3.103-9.45-5.641-9.45-2.116 0-4.372.988-6.064 2.68-1.975 1.834-2.962 4.09-2.962 6.487 0 3.667 2.539 5.782 8.039 6.77l.564.14-.423.283c-3.667 2.82-13.539 6.769-19.744 9.307l-1.692.706 1.692.422c1.41.283 3.949.565 5.218.565h.282c2.539-.846 13.962-5.36 18.051-10.436l.141-.141h.141c.283.14 1.411.564 1.834.705l.423.14 2.961-4.089-.846-.282Zm-4.936-1.27-.141.283h-.282c-5.923-1.128-9.166-3.244-9.166-5.641 0-1.551 2.256-3.244 4.371-3.244 2.398 0 5.218 3.103 5.218 7.334.282.423.141.846 0 1.269ZM35.49 67.975a38.94 38.94 0 0 1 5.642-.846c.846-.141 1.692-.141 2.538-.141.423 0 3.385-.706 5.077-.424 11.141-6.628 25.667-13.256 40.192-19.743 5.642-2.398 10.154-3.667 17.206-6.628 2.538-.282 14.243-7.334 14.807-3.808.987 1.41 2.68 2.68 2.68 2.68 3.666-6.206 4.654-8.885 6.487-14.526 2.115-6.628 5.077-9.449 6.064-16.782-1.833.14-4.654 1.974-5.923 2.68-3.103 1.41-6.628 2.96-10.013 4.653-8.179 3.385-16.641 4.654-24.82 7.474-2.82.565-3.667 1.552-6.206 1.975-.705.846-2.679 1.27-3.807 1.27-2.398.845-4.23 1.41-6.628 2.82-1.834-.282-3.667 1.974-6.064 1.55-2.821 1.411-11.141 5.5-15.231 5.783-1.975.141-8.18 2.115-10.86 2.538-.986.423-.563 1.27-1.269 1.975-1.974 7.897-5.5 12.692-8.602 20.448-.282 2.962-2.82 6.206-1.27 7.052ZM144.927 87.013c.141-.705.423-1.41.564-2.115v-.282c-2.398 3.667-5.5 7.615-10.859 12.551v.141L132.939 99c-5.5 5.924-11.564 10.577-18.051 15.231-2.961 3.103-6.346 5.359-10.295 7.193-7.897 4.653-16.5 7.615-24.961 11-2.257.987-4.09.282-5.218 2.82-.141-.141-.282-.282-.423-.282-3.808.423-9.167 1.269-12.27 3.667 4.09 4.936 11.988-3.949 16.218.282-1.55 1.833-3.948 2.115-5.923 3.384-1.269-.423-2.397.424-3.525.706-1.975.564-5.36 1.128-7.334 1.692-6.91.282-13.679 1.833-20.59 1.41-31.025-1.974-41.179-26.231-30.179-53.449 1.41-2.961 3.103-5.64 4.936-8.461-1.27-1.834-5.64 5.077-6.91 6.91-10.154 18.615-13.962 42.872 5.077 57.398.564.282 1.41.564 1.833.846.564-.423.987-.705 1.128-.846.564-.424.564-.283 3.103.987 10.295 4.936 23.41 5.359 34.974 3.525.846 0 1.551-.141 2.398-.141 1.128.423 2.256-.141 3.243-.423.423-.141.987-.141 1.551-.282h.142c3.243-.705 6.487-1.128 8.461-4.09 1.128.283 2.115.847 3.103 0 4.512-.987 8.743-2.679 12.974-4.653 1.128-.141 1.41.846 2.68.705 23.269-9.731 44.987-26.372 53.307-51.193v-.14c.423-.988.846-1.975 1.128-2.962v-.141c0-.141 0-.282.141-.282.706-.846.988-1.552 1.27-2.398-.141.141-.141 0 0 0Z" fill="#BE008D"></path></svg>